<svg width="1024" height="1024" viewBox="0 0 1024 1024" fill="none" xmlns="http://www.w3.org/2000/svg">
  <rect width="1024" height="1024" fill="#0a0a0a"/>
  <!-- Icon center: x=16, y=17 in original 32x32 viewBox. Scale 26x. Offset to center in 1024: -->
  <!-- centerX = 512 - 16*26 = 96, centerY = 512 - 17*26 = 70 -->
  <g transform="translate(96, 70) scale(26)">
    <path d="M16 3C16 3 14 3 14 5V7H18V5C18 3 16 3 16 3Z" stroke="#D946EF" stroke-width="1.5" stroke-linecap="round" stroke-linejoin="round"/>
    <rect x="13" y="7" width="6" height="2" rx="0.5" stroke="#D946EF" stroke-width="1.5"/>
    <rect x="14" y="9" width="4" height="5" stroke="#D946EF" stroke-width="1.5"/>
    <rect x="13" y="14" width="6" height="2" rx="0.5" stroke="#D946EF" stroke-width="1.5"/>
    <rect x="14" y="16" width="4" height="6" stroke="#D946EF" stroke-width="1.5"/>
    <path d="M12 22H20V26C20 28 18 29 16 29C14 29 12 28 12 26V22Z" stroke="#D946EF" stroke-width="1.5" stroke-linecap="round" stroke-linejoin="round"/>
    <path d="M16 29V31" stroke="#D946EF" stroke-width="1.5" stroke-linecap="round"/>
  </g>
</svg>
